<?xml version="1.0" encoding="UTF-8" ?>
<!DOCTYPE svg PUBLIC "-//W3C//DTD SVG 1.1//EN" "http://www.w3.org/Graphics/SVG/1.1/DTD/svg11.dtd">
<svg width="70px" height="70px" viewBox="0 0 750 750" version="1.1" xmlns="http://www.w3.org/2000/svg">
<g id="#ffffffff">
<path fill="#ffffff" opacity="1.00" d=" M 364.50 156.35 C 394.24 146.56 425.84 144.00 456.99 144.69 C 483.67 145.12 511.09 146.53 536.05 156.90 C 557.12 165.52 576.06 178.39 594.72 191.24 C 606.78 199.25 618.04 208.47 628.01 218.97 C 654.94 247.23 673.42 282.76 684.48 320.00 C 695.89 358.66 699.08 400.60 688.42 439.80 C 682.90 460.32 672.91 479.36 661.01 496.87 C 651.67 510.63 641.08 523.55 629.42 535.42 C 616.97 548.22 602.65 559.04 587.84 568.96 C 574.55 577.69 560.84 586.02 545.93 591.72 C 533.30 596.63 520.26 600.60 506.92 603.02 C 497.06 604.87 486.99 604.79 477.00 604.95 C 463.31 604.97 449.61 605.16 435.94 604.34 C 424.67 603.11 413.38 601.74 402.03 601.73 C 387.69 601.53 373.36 600.87 359.04 600.16 C 350.63 599.57 342.15 599.34 333.86 597.62 C 329.23 597.96 324.59 597.99 319.96 597.54 C 318.29 600.20 314.70 599.49 312.04 599.47 C 307.05 597.49 303.36 592.37 302.85 587.04 C 302.63 583.67 305.21 580.67 308.60 580.53 C 303.76 575.79 301.26 569.35 298.82 563.18 C 296.86 557.88 294.26 552.70 293.75 546.98 C 292.71 537.24 294.09 527.34 296.96 518.01 C 298.17 513.64 301.39 510.36 304.22 507.00 C 297.77 488.69 295.09 469.26 293.84 449.96 C 292.96 433.53 293.43 417.03 295.20 400.68 C 277.94 405.20 259.53 406.90 242.00 402.91 C 229.28 400.05 217.53 392.36 210.73 381.11 C 206.00 381.41 201.26 380.97 196.53 381.27 C 195.22 388.56 193.63 395.81 192.24 403.09 C 202.14 409.33 209.16 419.05 214.87 429.06 C 217.54 433.10 218.78 438.49 216.55 443.00 C 214.05 448.01 208.13 449.85 202.92 450.18 C 195.72 450.53 188.44 449.52 181.58 447.36 C 180.25 449.03 179.77 451.14 178.95 453.08 C 174.94 463.15 170.82 473.18 166.40 483.07 C 162.89 491.19 157.96 498.57 153.38 506.11 C 148.27 513.94 143.48 522.23 136.32 528.42 C 130.21 533.79 123.63 538.71 116.42 542.51 C 112.60 544.39 108.28 546.15 103.95 545.24 C 101.65 544.71 100.25 542.35 100.51 540.07 C 100.87 535.81 103.46 532.20 105.81 528.79 C 110.20 523.03 114.35 516.93 116.76 510.06 C 108.57 517.69 99.79 524.81 90.06 530.40 C 87.60 531.56 84.73 533.50 81.95 532.21 C 78.41 529.97 78.42 524.70 80.52 521.47 C 85.99 514.02 91.25 506.38 95.91 498.39 C 88.83 501.32 81.51 503.75 74.01 505.37 C 70.31 505.92 65.89 506.55 62.68 504.17 C 61.53 501.19 64.08 498.33 65.56 495.92 C 72.40 487.97 82.25 483.62 90.59 477.53 C 96.35 473.07 101.42 467.80 106.50 462.59 C 119.00 450.05 128.06 434.68 137.62 419.91 L 137.57 419.14 C 132.79 413.59 128.23 407.75 124.88 401.21 C 122.92 397.16 121.43 392.22 123.53 387.94 C 125.39 384.43 129.27 382.61 133.01 381.86 C 140.03 380.42 147.18 381.79 154.12 383.02 C 154.80 380.72 155.57 378.44 156.05 376.09 C 126.06 367.59 96.85 352.61 76.33 328.65 C 60.88 310.93 52.26 286.63 55.86 263.14 C 58.67 275.45 65.76 286.45 74.90 295.04 C 84.48 304.08 96.34 311.36 109.57 313.19 C 123.91 315.12 138.41 312.22 152.06 307.89 C 159.54 305.60 166.57 302.03 173.21 297.94 C 165.39 285.42 157.72 272.80 150.18 260.10 C 169.50 260.73 188.32 265.84 206.92 270.69 L 207.48 270.48 C 230.27 246.23 254.00 222.71 280.02 201.91 C 287.73 195.83 295.64 189.97 304.11 184.99 C 323.42 173.87 343.19 163.17 364.50 156.35 M 307.41 304.60 C 300.71 306.05 296.54 314.64 300.48 320.56 C 304.62 328.79 318.21 327.81 321.16 319.09 C 324.90 310.93 315.64 301.76 307.41 304.60 M 370.57 331.38 C 369.11 342.85 363.94 353.71 356.40 362.42 C 352.78 366.73 348.30 370.16 344.07 373.82 C 350.02 378.55 354.98 384.36 359.93 390.10 C 368.07 399.74 375.70 409.81 383.16 419.99 C 391.92 432.28 400.91 444.47 408.43 457.58 C 417.12 473.91 424.33 491.09 429.61 508.83 C 433.48 521.85 434.15 535.65 432.54 549.09 C 431.82 557.83 427.58 565.69 423.71 573.37 C 436.04 573.42 448.34 569.59 458.49 562.59 C 465.41 557.98 470.79 551.56 476.38 545.51 C 483.28 537.68 490.17 529.84 496.39 521.46 C 507.02 506.72 517.20 491.66 527.23 476.50 C 532.18 469.02 536.08 460.77 538.05 451.99 C 540.11 443.58 540.09 434.83 539.50 426.24 C 529.85 428.66 520.16 425.49 511.01 422.60 C 499.90 418.87 489.04 414.21 479.08 407.99 C 465.70 399.35 453.62 388.75 442.64 377.24 C 434.92 383.53 427.04 390.13 417.45 393.35 C 413.29 394.76 407.66 395.01 404.83 391.02 C 401.92 386.66 402.30 381.05 402.87 376.09 C 404.81 365.40 410.20 355.80 414.88 346.14 C 407.79 338.78 401.38 330.78 394.16 323.56 C 385.75 323.92 377.71 327.07 370.57 331.38 M 227.44 338.79 C 223.75 340.28 220.80 343.90 220.55 347.95 C 219.84 353.24 223.77 358.44 228.86 359.69 C 235.61 361.78 243.64 356.22 243.35 348.98 C 243.62 341.16 234.39 335.64 227.44 338.79 M 422.07 354.99 C 417.67 361.84 413.16 369.49 413.42 377.92 C 413.29 380.40 415.16 383.14 417.92 382.39 C 423.09 381.20 427.52 377.95 431.71 374.83 C 433.17 373.38 435.39 372.16 435.89 370.08 C 431.62 365.08 427.17 360.23 422.80 355.31 L 422.07 354.99 M 132.08 394.07 C 133.20 401.07 137.69 406.91 142.31 412.05 C 146.16 405.49 148.46 398.19 151.60 391.29 C 146.15 390.31 140.54 389.13 134.99 389.96 C 133.01 390.22 131.56 392.07 132.08 394.07 M 511.91 392.11 C 515.50 395.66 519.81 398.36 523.44 401.88 C 527.59 404.52 531.14 408.35 535.85 409.98 C 534.33 405.45 533.36 400.75 531.64 396.28 C 524.90 395.75 518.43 393.67 511.91 392.11 M 190.48 412.33 C 189.67 417.86 188.57 423.35 187.41 428.82 C 186.85 431.79 185.31 434.50 185.07 437.54 C 190.60 438.64 196.20 439.99 201.88 439.58 C 204.35 439.54 206.10 437.24 206.28 434.93 C 206.65 431.06 205.73 426.88 203.03 423.97 C 199.26 419.68 195.01 415.80 190.48 412.33 Z" />
<path fill="#ffffff" opacity="1.00" d=" M 313.33 307.36 C 314.72 307.17 316.12 307.47 317.51 307.61 L 317.87 307.66 L 317.83 308.29 C 318.19 310.77 317.09 312.79 315.10 314.17 C 313.56 313.53 312.16 312.63 310.88 311.57 C 311.35 310.02 311.45 307.89 313.33 307.36 Z" />
<path fill="#ffffff" opacity="1.00" d=" M 229.91 344.68 C 230.53 341.82 233.36 340.72 235.92 342.07 C 236.40 343.63 236.41 345.26 236.28 346.88 C 235.00 347.19 233.73 347.98 232.38 347.68 C 231.14 347.10 230.66 345.71 229.91 344.68 Z" />
</g>
<g id="#d45885ff">
<path fill="#d45885" opacity="1.00" d=" M 299.39 314.93 C 299.72 309.49 304.49 304.75 309.99 304.74 C 312.58 304.80 316.07 305.14 317.51 307.61 C 316.12 307.47 314.72 307.17 313.33 307.36 C 311.45 307.89 311.35 310.02 310.88 311.57 C 308.64 312.19 305.82 313.22 305.68 315.99 C 304.97 319.75 309.55 322.69 312.78 320.80 C 315.37 319.73 315.37 316.52 315.10 314.17 C 317.09 312.79 318.19 310.77 317.83 308.29 C 319.84 308.12 320.21 310.62 320.89 312.02 C 323.36 318.47 317.63 325.84 310.92 325.75 C 304.87 326.36 299.37 320.89 299.39 314.93 Z" />
<path fill="#d45885" opacity="1.00" d=" M 228.93 338.91 C 235.62 336.65 243.87 342.67 242.77 349.95 C 242.41 358.60 230.19 362.85 224.33 356.61 C 218.26 351.53 221.13 340.34 228.93 338.91 M 229.91 344.68 C 225.05 344.90 223.39 352.07 227.71 354.30 C 232.21 358.01 239.99 351.95 236.28 346.88 C 236.41 345.26 236.40 343.63 235.92 342.07 C 233.36 340.72 230.53 341.82 229.91 344.68 Z" />
</g>
<g id="#a20e3eff">
<path fill="#a20e3e" opacity="1.00" d=" M 305.68 315.99 C 305.82 313.22 308.64 312.19 310.88 311.57 C 312.16 312.63 313.56 313.53 315.10 314.17 C 315.37 316.52 315.37 319.73 312.78 320.80 C 309.55 322.69 304.97 319.75 305.68 315.99 Z" />
<path fill="#a20e3e" opacity="1.00" d=" M 227.71 354.30 C 223.39 352.07 225.05 344.90 229.91 344.68 C 230.66 345.71 231.14 347.10 232.38 347.68 C 233.73 347.98 235.00 347.19 236.28 346.88 C 239.99 351.95 232.21 358.01 227.71 354.30 Z" />
</g>
</svg>
