<?xml version="1.0" encoding="UTF-8" standalone="no"?>
<svg
   xmlns:dc="http://purl.org/dc/elements/1.1/"
   xmlns:cc="http://creativecommons.org/ns#"
   xmlns:rdf="http://www.w3.org/1999/02/22-rdf-syntax-ns#"
   xmlns:svg="http://www.w3.org/2000/svg"
   xmlns="http://www.w3.org/2000/svg"
   xmlns:sodipodi="http://sodipodi.sourceforge.net/DTD/sodipodi-0.dtd"
   xmlns:inkscape="http://www.inkscape.org/namespaces/inkscape"
   version="1.0"
   width="1800"
   height="1800"
   viewBox="0 0 1440 1440"
   preserveAspectRatio="xMidYMid meet"
   id="svg2"
   inkscape:version="0.48.4 r9939"
   sodipodi:docname="kyubey.svg">
  <defs
     id="defs28" />
  <sodipodi:namedview
     pagecolor="#ffffff"
     bordercolor="#666666"
     borderopacity="1"
     objecttolerance="10"
     gridtolerance="10"
     guidetolerance="10"
     inkscape:pageopacity="0"
     inkscape:pageshadow="2"
     inkscape:window-width="1366"
     inkscape:window-height="715"
     id="namedview26"
     showgrid="false"
     inkscape:zoom="0.3275"
     inkscape:cx="637.22314"
     inkscape:cy="994.59448"
     inkscape:window-x="0"
     inkscape:window-y="0"
     inkscape:window-maximized="1"
     inkscape:current-layer="g4963" />
  <metadata
     id="metadata4">
Created by potrace 1.11, written by Peter Selinger 2001-2013
<rdf:RDF>
  <cc:Work
     rdf:about="">
    <dc:format>image/svg+xml</dc:format>
    <dc:type
       rdf:resource="http://purl.org/dc/dcmitype/StillImage" />
  </cc:Work>
</rdf:RDF>
</metadata>
  <g
     id="g4922">
    <g
       id="g5022">
      <g
         id="g4992">
        <g
           id="g4963">
          <g
             transform="translate(40.132801,-45.018319)"
             id="g4673">
            <g
               style="fill:#000000;stroke:none"
               id="g6"
               transform="matrix(0.1,0,0,-0.1,82.054832,1178.4315)">
              <path
                 inkscape:connector-curvature="0"
                 id="path8"
                 d="M 7565,9203 C 6912,9177 6353,9059 5830,8838 5547,8718 5083,8470 4835,8305 4437,8041 3945,7609 3333,6985 l -294,-299 -147,38 c -222,58 -421,102 -583,130 -164,28 -386,52 -395,43 -6,-6 176,-315 349,-591 l 99,-160 -21,-17 c -39,-31 -254,-136 -345,-168 -126,-44 -291,-87 -431,-112 -167,-29 -402,-30 -536,-1 -327,68 -662,316 -863,636 -58,93 -111,209 -129,287 -7,27 -15,49 -19,49 -12,0 -21,-154 -15,-267 16,-285 116,-588 273,-824 331,-496 889,-879 1627,-1116 62,-19 113,-37 115,-38 5,-4 -29,-119 -38,-128 -4,-5 -47,-1 -95,8 -62,12 -127,16 -215,13 -119,-3 -129,-5 -193,-36 -94,-47 -122,-90 -121,-186 0,-49 8,-89 23,-129 26,-67 133,-232 214,-331 32,-38 57,-74 57,-81 0,-19 -349,-541 -429,-640 C 1121,2940 934,2743 815,2637 759,2588 649,2507 565,2453 306,2288 221,2215 172,2118 c -42,-86 -24,-121 73,-133 72,-10 198,16 392,81 91,30 167,54 169,54 3,0 -1,-10 -7,-22 -19,-36 -221,-338 -262,-391 -65,-85 -73,-165 -21,-227 49,-57 116,-38 304,87 111,74 217,156 337,260 40,35 73,60 73,56 0,-25 -103,-205 -176,-308 -100,-140 -132,-199 -140,-258 -22,-163 160,-168 411,-11 197,123 365,272 469,413 136,187 333,510 416,684 53,111 214,492 285,675 27,69 30,73 54,67 222,-57 449,-63 556,-16 105,47 151,124 143,240 -5,60 -12,81 -53,153 -118,206 -271,392 -390,473 -30,21 -55,45 -55,54 0,9 19,109 41,224 l 42,207 141,0 142,0 18,-31 c 93,-158 308,-315 522,-382 170,-54 240,-62 504,-61 256,0 379,14 569,62 l 73,19 -6,-71 c -62,-705 -11,-1389 144,-1919 22,-76 40,-140 40,-142 0,-2 -20,-27 -45,-55 -58,-65 -89,-127 -115,-229 -50,-197 -64,-424 -35,-567 18,-84 107,-319 166,-439 22,-44 58,-101 80,-127 l 39,-46 -36,-12 c -70,-23 -95,-118 -54,-207 23,-53 101,-137 140,-153 39,-16 149,-9 164,11 9,12 42,14 171,13 88,-1 187,-6 220,-12 127,-23 554,-47 1100,-62 352,-10 608,-27 780,-51 39,-6 279,-13 535,-16 684,-8 870,7 1215,97 507,132 851,291 1355,625 347,230 600,436 840,681 532,545 946,1193 1128,1765 283,889 211,1950 -205,3009 -73,185 -227,509 -322,675 -224,390 -534,783 -827,1047 -159,143 -268,227 -519,401 -1015,700 -1446,856 -2475,897 -234,9 -540,10 -715,3 z m 765,-33 c 909,-40 1335,-184 2159,-730 488,-323 657,-455 901,-699 447,-448 792,-1004 1043,-1683 363,-979 435,-1981 198,-2767 C 12423,2603 11924,1837 11332,1297 10979,976 10505,639 10117,435 9826,282 9345,120 9003,60 8840,31 8444,17 8000,23 c -296,5 -391,10 -575,31 -165,20 -306,29 -565,36 -510,14 -978,39 -1143,61 -98,13 -232,51 -300,85 -28,15 -70,45 -92,68 -23,22 -78,70 -124,105 -107,84 -171,156 -215,245 -41,81 -149,362 -171,445 -45,167 -20,462 56,666 18,48 40,77 114,152 l 92,93 59,0 c 47,0 67,5 96,25 63,43 63,45 13,247 -65,265 -119,581 -174,1023 -18,143 -11,-8 9,-197 37,-346 93,-677 155,-918 23,-89 23,-96 7,-113 -28,-32 -68,-47 -122,-47 -40,0 -59,-6 -85,-25 l -33,-26 -16,48 c -84,262 -160,691 -187,1051 -15,206 -6,730 15,896 8,65 16,119 18,120 2,2 53,20 113,40 218,74 512,239 740,415 44,33 83,60 87,59 22,-8 225,-221 327,-343 127,-152 291,-360 291,-369 0,-3 -30,8 -67,23 -149,63 -285,68 -382,16 -253,-138 -355,-706 -215,-1192 35,-123 119,-293 193,-390 308,-407 820,-493 1057,-176 89,119 130,294 120,513 -3,74 -8,146 -11,160 -9,41 126,-237 195,-402 80,-194 163,-431 200,-574 49,-190 63,-322 57,-549 -8,-283 -24,-357 -129,-574 l -59,-124 -82,7 c -45,4 -100,9 -122,11 -23,2 -12,-2 25,-10 83,-19 292,-22 395,-6 228,36 489,162 652,314 115,108 468,507 594,672 165,215 680,982 746,1110 56,110 107,250 135,375 20,90 23,132 23,298 0,144 3,192 12,192 7,0 28,14 48,31 29,25 35,38 35,69 0,53 -36,93 -158,176 -4,3 -91,298 -89,300 1,1 60,-3 131,-9 207,-17 356,10 473,88 154,102 86,205 -212,323 -55,22 -170,63 -255,92 -85,29 -156,53 -157,54 -1,0 74,-1 165,-2 189,-4 309,8 427,45 223,70 243,135 67,222 -34,18 -329,121 -655,231 -326,109 -644,219 -707,245 -98,39 -320,152 -342,173 -3,4 9,59 27,123 60,208 63,295 11,398 -35,68 -83,103 -149,109 -47,4 -62,-1 -147,-45 -78,-40 -176,-101 -288,-180 -14,-10 -28,-3 -87,40 -159,116 -899,644 -1147,818 -147,103 -312,210 -367,238 -120,62 -270,112 -403,136 -72,13 -99,22 -102,34 -3,9 -28,110 -56,224 -28,114 -73,282 -100,372 -69,227 -181,515 -201,515 -10,0 -155,-163 -252,-283 -190,-236 -410,-565 -597,-889 -66,-117 -76,-129 -109,-137 -20,-6 -72,-19 -116,-30 -314,-79 -702,-259 -950,-440 -38,-28 -74,-51 -80,-51 -6,0 -49,13 -96,28 -46,16 -114,37 -151,47 -38,10 -68,21 -68,26 0,26 623,645 930,922 458,415 768,650 1125,852 868,492 1460,669 2405,718 141,8 597,6 800,-3 z M 5600,8103 c 72,-209 232,-805 219,-817 -2,-2 -54,1 -115,6 -70,7 -160,7 -244,2 l -132,-9 6,115 c 18,299 69,644 121,810 16,50 19,68 9,55 -21,-29 -60,-156 -83,-276 -38,-197 -64,-497 -75,-866 l -4,-152 75,-41 c 146,-79 326,-223 608,-485 l 145,-136 40,-127 c 54,-173 108,-398 121,-506 33,-275 -90,-604 -319,-847 -156,-166 -496,-415 -742,-543 -354,-184 -676,-261 -1090,-260 -224,0 -310,10 -463,55 -488,144 -758,596 -759,1269 0,209 7,255 72,486 49,170 50,178 33,195 -35,33 -291,246 -443,370 -265,215 -487,381 -585,439 -59,35 -43,21 84,-69 166,-119 780,-617 789,-640 1,-5 -25,-41 -59,-82 -34,-41 -89,-111 -123,-156 -33,-45 -65,-79 -70,-76 -14,9 -222,330 -457,706 -167,267 -216,353 -204,355 27,6 270,-27 435,-59 277,-54 534,-121 848,-219 l 163,-51 37,29 c 93,74 301,200 447,272 199,97 389,169 566,212 l 135,33 49,90 c 188,353 487,783 774,1118 l 76,88 32,-70 c 17,-38 55,-136 83,-218 z m 201,-843 c 307,-31 488,-95 722,-256 258,-179 1338,-954 1370,-984 17,-16 15,-20 -66,-89 -203,-172 -426,-429 -562,-648 -31,-51 -61,-91 -66,-88 -4,3 -120,133 -256,288 -350,399 -917,967 -1203,1206 -100,84 -246,189 -347,252 l -73,44 0,125 c 0,69 4,130 8,136 4,7 18,14 32,17 49,9 340,7 441,-3 z M 115,6531 c 169,-320 519,-599 865,-691 107,-28 370,-39 517,-21 291,36 592,135 809,265 32,20 62,36 66,36 10,0 228,-326 228,-340 0,-6 -17,-37 -38,-68 -162,-239 -335,-590 -472,-958 -29,-76 -54,-141 -55,-143 -2,-2 -68,18 -147,44 -559,184 -977,426 -1309,755 -208,207 -326,374 -422,601 -87,205 -126,363 -134,551 -7,154 1,186 28,110 10,-29 39,-92 64,-141 z m 6458,-676 201,-210 -69,-6 c -109,-10 -210,-41 -325,-99 l -60,-30 0,74 c 0,118 -54,382 -124,600 l -25,80 100,-100 c 56,-54 191,-193 302,-309 z m 1867,363 c 36,-19 51,-35 75,-82 43,-85 42,-186 -4,-346 -17,-64 -36,-121 -40,-128 -6,-10 -20,-6 -58,18 l -50,31 18,53 c 80,235 19,336 -151,251 -72,-36 -166,-111 -289,-230 -275,-266 -545,-617 -696,-907 -73,-141 -95,-212 -95,-314 0,-63 3,-76 26,-103 21,-26 33,-31 67,-31 75,0 236,89 339,188 l 59,56 43,-50 44,-49 -21,-24 c -36,-38 -221,-174 -301,-220 -148,-84 -272,-111 -346,-73 -24,12 -43,33 -60,67 -22,45 -25,62 -24,160 1,101 4,120 43,234 79,237 234,526 399,746 210,281 519,556 796,710 126,70 159,76 226,43 z M 2963,5823 c -39,-136 -57,-217 -65,-297 -12,-133 -3,-349 21,-500 l 18,-108 -24,-66 c -55,-151 -111,-400 -223,-985 -33,-175 -74,-360 -90,-412 l -31,-94 -42,13 c -213,67 -457,203 -647,361 -125,104 -119,90 -71,189 58,119 140,333 201,526 206,650 547,1297 853,1617 l 40,42 57,-50 57,-49 -54,-187 z m 5417,178 c 16,-31 12,-108 -11,-193 -15,-57 -25,-78 -35,-74 -21,8 -222,144 -228,155 -8,12 57,63 129,101 68,36 129,40 145,11 z m -217,-179 c 225,-160 494,-314 677,-387 63,-26 363,-129 665,-230 710,-236 790,-270 790,-330 0,-27 -7,-34 -75,-68 -125,-63 -234,-81 -490,-80 -168,1 -227,4 -270,17 -109,32 -283,76 -287,72 -3,-2 22,-12 54,-21 226,-63 717,-237 849,-300 100,-48 154,-98 154,-142 0,-38 -74,-106 -146,-133 -186,-69 -435,-64 -784,16 -173,40 -173,40 -250,97 -134,98 112,-126 298,-270 59,-47 163,-122 232,-168 231,-153 267,-224 145,-285 -43,-21 -67,-25 -166,-28 -101,-4 -132,0 -225,23 -193,48 -526,177 -712,276 -249,132 -556,377 -818,650 -44,46 -141,151 -215,232 -74,82 -157,174 -185,205 l -52,57 89,130 c 150,222 331,437 519,619 60,58 113,106 116,106 3,0 42,-26 87,-58 z M 6991,5403 c 112,-124 204,-229 203,-232 0,-3 -35,-76 -77,-161 -104,-211 -157,-374 -164,-500 -11,-196 51,-293 187,-293 134,0 303,90 575,307 l 36,29 102,-100 c 289,-283 556,-485 815,-616 226,-115 517,-220 722,-262 64,-13 112,-16 192,-12 l 106,6 7,-95 c 19,-245 -47,-543 -167,-764 -83,-152 -600,-911 -761,-1118 -169,-216 -484,-570 -587,-658 -128,-110 -293,-200 -450,-247 -138,-42 -350,-71 -350,-48 0,6 13,35 29,64 43,75 99,218 121,302 30,117 45,376 31,534 -23,256 -77,457 -222,821 -156,392 -274,619 -487,930 -358,524 -708,976 -937,1207 l -130,132 59,48 c 181,146 318,327 396,523 12,30 34,105 49,165 l 27,110 80,42 c 121,64 248,102 375,112 10,0 101,-93 220,-226 z m 479,-534 c 63,-71 124,-141 134,-154 l 20,-25 -40,-41 c -79,-81 -247,-183 -322,-195 -35,-5 -44,-3 -66,19 -22,22 -26,35 -26,88 0,33 7,89 16,123 18,69 142,316 158,315 6,0 63,-59 126,-130 z M 2981,4766 c 18,-54 51,-136 74,-182 l 42,-84 -129,0 c -118,0 -129,1 -124,18 3,9 14,55 26,102 21,85 72,251 76,247 1,-1 17,-46 35,-101 z M 1864,4434 c 55,-9 102,-17 104,-19 8,-7 -32,-115 -42,-115 -6,0 -47,7 -91,15 -157,28 -278,15 -304,-33 -18,-33 -13,-87 14,-158 85,-227 369,-490 715,-664 190,-95 360,-147 558,-171 119,-15 170,-4 205,43 28,38 34,129 13,200 -20,71 -125,189 -284,320 l -33,27 12,65 11,66 46,-32 c 66,-44 197,-180 263,-274 71,-99 156,-248 169,-294 36,-129 -31,-238 -170,-275 -108,-29 -313,-15 -505,35 -403,105 -800,407 -1063,808 -75,114 -104,188 -106,267 -1,46 4,68 21,96 24,39 97,83 159,98 62,14 198,12 308,-5 z m -11,-146 c 47,-8 67,-15 67,-26 0,-18 -101,-263 -143,-347 l -30,-59 -34,39 c -92,108 -172,263 -173,336 0,76 93,93 313,57 z m 7419,-63 c 54,-13 132,-29 175,-36 43,-7 82,-16 87,-20 9,-8 86,-272 80,-278 -4,-4 -146,94 -214,148 -63,50 -232,191 -250,209 -13,13 -13,14 5,8 11,-4 64,-18 117,-31 z M 2864,3719 c 53,-50 108,-110 121,-133 53,-90 56,-202 7,-251 -27,-27 -28,-27 -137,-22 -109,5 -255,31 -255,46 0,4 9,34 20,67 17,49 55,224 84,387 l 7,38 28,-20 c 15,-11 71,-61 125,-112 z m -919,-273 c 151,-114 298,-195 465,-257 64,-24 75,-31 72,-49 -3,-27 -188,-495 -267,-675 -82,-189 -346,-622 -474,-779 -135,-166 -426,-380 -614,-451 -91,-34 -149,-34 -176,1 -44,56 -18,139 88,283 35,46 80,112 102,148 38,61 209,396 209,409 0,3 -26,-28 -58,-68 -120,-150 -348,-344 -549,-466 -141,-85 -201,-93 -229,-27 -16,40 -8,96 22,143 19,30 140,212 381,577 98,147 120,186 85,148 -26,-28 -74,-92 -107,-141 l -60,-90 -165,-56 c -277,-93 -424,-118 -478,-80 -30,21 -28,47 10,113 55,96 147,170 383,311 165,98 276,195 498,435 176,190 257,299 481,647 l 108,168 99,-94 c 55,-52 133,-120 174,-150 z m 4275,217 c 158,-79 344,-338 400,-557 38,-150 24,-229 -56,-316 -70,-75 -133,-104 -229,-104 -90,0 -148,27 -215,101 -81,88 -144,240 -175,421 -20,114 -19,184 5,277 48,187 136,245 270,178 z M 5164,408 c 43,-35 109,-91 146,-124 45,-40 94,-73 142,-93 l 73,-32 -115,5 c -63,2 -123,8 -133,11 -13,6 -16,3 -11,-10 17,-42 -95,-49 -161,-10 -123,72 -169,255 -75,302 41,21 53,16 134,-49 z" />
              <path
                 inkscape:connector-curvature="0"
                 id="path10"
                 d="m 5050,6011 c -106,-35 -170,-116 -170,-216 0,-187 222,-287 377,-170 41,32 83,114 83,164 0,83 -49,165 -122,202 -45,23 -129,33 -168,20 z m 190,-71 c 27,-27 25,-66 -5,-95 -28,-29 -36,-30 -74,-10 -67,34 -46,125 29,125 17,0 39,-9 50,-20 z" />
              <path
                 inkscape:connector-curvature="0"
                 id="path14"
                 d="m 8820,5316 c 0,-45 102,-115 168,-116 29,0 32,3 32,28 0,17 -9,37 -23,50 -45,43 -177,71 -177,38 z" />
              <path
                 inkscape:connector-curvature="0"
                 id="path16"
                 d="m 8540,5012 c -29,-23 -21,-64 20,-114 60,-73 160,-85 176,-22 11,45 -21,90 -89,124 -70,35 -78,36 -107,12 z" />
              <path
                 inkscape:connector-curvature="0"
                 id="path18"
                 d="m 8202,4677 c -47,-50 -12,-152 67,-196 77,-43 171,-27 171,30 0,63 -126,189 -189,189 -16,0 -37,-10 -49,-23 z" />
              <path
                 inkscape:connector-curvature="0"
                 id="path20"
                 d="m 1257,2997 c -65,-65 -98,-167 -54,-167 51,0 150,120 145,174 -5,49 -38,46 -91,-7 z" />
              <path
                 inkscape:connector-curvature="0"
                 id="path22"
                 d="m 1472,2825 c -41,-34 -86,-127 -78,-159 7,-29 37,-41 65,-26 11,5 35,32 53,58 26,37 32,57 33,97 0,43 -3,50 -21,53 -12,2 -35,-9 -52,-23 z" />
              <path
                 inkscape:connector-curvature="0"
                 id="path24"
                 d="m 1880,2637 c -41,-20 -82,-90 -88,-146 -5,-60 7,-81 50,-81 75,0 160,156 116,212 -19,23 -50,29 -78,15 z" />
              <path
                 id="path10-5"
                 d="m 3446.386,5397.0858 c -106,-35 -170,-116 -170,-216 0,-187 222,-287 377,-170 41,32 83,114 83,164 0,83 -49,165 -122,202 -45,23 -129,33 -168,20 z m 190,-71 c 27,-27 25,-66 -5,-95 -28,-29 -36,-30 -74,-10 -67,34 -46,125 29,125 17,0 39,-9 50,-20 z"
                 inkscape:connector-curvature="0" />
            </g>
          </g>
          <path
             style="fill:#ffffff;fill-opacity:1"
             d="m 837.99376,367.80718 c -14.70263,15.23513 -27.56365,32.33834 -40.57581,49.10653 -26.47463,34.78723 -50.10632,71.85547 -71.04414,110.15022 -2.05797,3.8145 -7.68435,3.01337 -11.20938,4.67255 -49.75458,11.92372 -96.64581,34.85527 -137.52372,65.46002 -57.5533,-18.05283 -115.97416,-34.97419 -176.21661,-40.8397 -1.81446,-0.27232 -6.33037,-0.24577 -4.67557,2.74332 8.00635,16.25332 18.54258,31.20571 27.85189,46.74911 17.83634,28.07302 35.17842,56.62886 54.13762,83.83295 2.87792,1.40364 4.96637,-3.21177 6.76949,-4.7788 8.96123,-11.35146 18.41213,-22.40174 26.62745,-34.31948 -3.60349,-5.02581 -9.59391,-8.74846 -14.21755,-13.14408 -25.92194,-21.70012 -52.44408,-42.72145 -79.22233,-63.38264 37.27191,27.06804 72.79591,56.71036 107.729,86.4981 2.6621,2.09509 5.40428,5.10255 3.67367,8.73091 -4.41513,22.07245 -13.85885,43.48565 -12.67992,66.43585 -0.19998,23.47543 -0.4723,47.27673 5.70469,70.13583 7.93156,34.64948 26.97483,68.2735 57.79064,87.2567 20.46913,12.64195 44.33053,19.6191 68.36398,20.70884 27.78689,0.58635 55.81232,0.50974 83.13044,-5.27649 55.37529,-11.00932 104.91488,-41.38751 147.91441,-76.94449 20.59289,-16.61712 37.89096,-37.6151 48.59608,-62.01171 10.84625,-23.81006 14.73032,-51.14644 8.45877,-76.77625 -4.59491,-22.02057 -10.73032,-43.73277 -17.70371,-65.10748 -29.20316,-26.92932 -57.72404,-55.29404 -91.66905,-76.24319 -3.89783,-2.35174 -7.91518,-4.49631 -11.88534,-6.72436 2.37488,-48.10903 2.33257,-97.03585 14.26486,-143.95767 1.04419,-3.7807 2.18207,-7.551 3.62636,-11.19501 -9.01541,34.08283 -12.95029,69.3805 -15.4103,104.50859 0.67546,3.86096 -2.27756,10.61438 1.02463,12.62553 19.94114,-1.24135 39.98386,0.34621 59.90094,-0.88889 3.30494,-1.19186 -0.004,-5.77154 0.16166,-8.13869 -9.47309,-37.32538 -18.90779,-74.93389 -32.52093,-111.01355 -2.84675,-6.21895 -4.34629,-13.52449 -8.57584,-18.89642 l -0.0716,-0.0239 -0.52481,0.0477 z m -49.54675,297.78149 c 11.46329,-0.45074 23.62288,5.01177 28.10114,16.00668 4.8365,9.43148 2.22014,21.59083 -5.15267,28.93607 -8.18552,9.09242 -22.70556,10.37031 -33.39695,5.27195 -11.64981,-5.90824 -17.5672,-20.87575 -12.42843,-32.96756 3.91826,-8.98321 12.94583,-16.20318 22.87691,-17.24714 z m -198.47329,76.9084 c 13.99643,-0.75241 27.66394,10.33333 28.6021,24.5229 1.12132,15.58428 -13.01474,29.93308 -28.69752,28.67367 -14.30049,-0.22045 -28.14515,-13.07873 -26.31202,-28.00573 -0.15537,-13.73981 13.18145,-25.05931 26.40744,-25.19084 z"
             id="path4822"
             inkscape:connector-curvature="0"
             transform="scale(0.8,0.8)" />
          <path
             style="fill:#ffffff;fill-opacity:1"
             d="m 514.99758,652.65928 c -33.69018,34.84237 -57.33192,77.92826 -78.03112,121.42166 -17.67298,36.9876 -30.07462,76.06606 -43.66473,114.65624 -5.21375,15.66639 -12.65407,30.56323 -18.78602,45.88775 -1.15383,5.15522 4.85742,8.35366 7.80326,11.59839 26.58498,22.69829 57.54897,40.94281 91.07555,51.09245 3.69137,-3.17321 3.71289,-9.23461 5.38773,-13.64555 13.05555,-53.37397 20.57086,-108.15071 35.21412,-161.13259 1.86321,-7.29057 5.23361,-14.37418 6.52578,-21.68034 -5.06927,-25.74959 -5.68752,-52.20226 -4.06942,-78.32682 2.39138,-19.35892 9.11325,-37.79795 14.16985,-56.58397 -4.13135,-4.98343 -9.6348,-9.15435 -14.69466,-13.35878 l -0.76111,0.0585 -0.16923,0.013 z"
             id="path4826"
             inkscape:connector-curvature="0"
             transform="scale(0.8,0.8)" />
          <path
             style="fill:#ffffff;fill-opacity:1"
             d="m 156.10976,577.35204 c -3.31688,4.41864 -0.9015,11.35151 -1.34944,16.66559 2.02857,45.92763 20.71347,90.6351 50.16461,125.67227 37.62404,44.17657 86.63069,77.8887 140.23789,99.6184 19.91634,8.01128 40.10981,16.07713 60.82957,21.38703 6.83062,-9.1025 9.42872,-21.1089 14.31389,-31.43778 15.47835,-39.21291 34.45409,-76.98922 57.09878,-112.54153 3.341,-4.53417 -3.68164,-8.87596 -4.95273,-12.96061 -7.41597,-10.50992 -13.80554,-22.27878 -22.73807,-31.44196 -9.10468,1.20948 -16.5044,8.40577 -25.06277,11.47871 -37.30517,17.12814 -78.30694,27.80085 -119.59633,25.11402 -37.4573,0.64307 -72.02643,-18.55222 -99.55588,-42.36159 -21.48383,-18.20049 -36.78016,-42.34273 -47.53404,-68.07927 -0.41486,-0.60892 -1.02298,-1.32981 -1.85548,-1.11328 z"
             id="path4830"
             inkscape:connector-curvature="0"
             transform="scale(0.8,0.8)" />
          <path
             style="fill:#ffffff;fill-opacity:1"
             d="m 520.69483,808.91601 c -5.5983,10.27229 -7.57283,22.5259 -10.94158,33.77479 0.0147,3.39903 -3.65687,8.59821 -0.9335,11.26279 10.15544,0.79078 21.00542,1.78602 31.07087,0.33736 -3.77602,-11.24353 -10.11028,-22.30403 -13.69824,-33.77091 -2.01357,-3.35151 -2.11252,-9.77626 -5.49755,-11.60403 z"
             id="path4832"
             inkscape:connector-curvature="0"
             transform="scale(0.8,0.8)" />
          <path
             style="fill:#ffffff;fill-opacity:1"
             d="m 355.96189,860.56584 c -12.87552,-0.62277 -28.1386,6.26066 -31.57691,19.56689 -2.56112,19.66321 10.97882,36.57417 21.48984,51.78478 35.23495,48.26433 88.0273,85.25269 147.86493,93.98849 16.07659,1.6219 33.52573,3.3327 48.57986,-3.576 15.27279,-6.6451 18.3354,-27.59112 9.81718,-40.68561 -13.78713,-25.5101 -31.87771,-49.59951 -55.73189,-66.39247 -3.49833,0.11026 -1.77619,6.47796 -3.13745,8.73762 -3.50192,7.02744 1.16,11.34614 6.6278,15.11279 10.91726,10.35417 23.49022,20.65154 30.58302,34.10805 2.50826,9.60779 4.87612,23.69007 -5.02667,29.78892 -11.43458,5.3019 -24.47203,0.4303 -36.33368,-0.9446 -42.91457,-9.12811 -82.65298,-31.43364 -114.19639,-61.50077 -13.83546,-14.03506 -27.19826,-30.71432 -30.93593,-50.53655 -1.74224,-7.838 6.00887,-13.82113 13.32573,-12.92089 12.08976,-1.00332 24.12778,1.89566 36.06379,2.19284 4.51618,-2.23775 4.88364,-8.6447 6.00501,-13.05584 -1.45868,-4.54271 -8.52703,-3.00736 -12.11123,-4.35194 -10.38553,-1.24925 -20.85656,-1.50288 -31.30701,-1.31571 z"
             id="path4836"
             inkscape:connector-curvature="0"
             transform="scale(0.8,0.8)" />
          <path
             style="fill:#ffffff;fill-opacity:1"
             d="m 360.98855,955.26283 c -25.64958,39.8506 -51.19834,80.40127 -85.17396,113.61557 -17.61675,19.3735 -38.32294,35.4067 -60.86448,48.7692 -16.03637,10.6913 -35.42207,21.8129 -41.09521,41.4482 -0.91706,7.8818 9.33486,9.1679 15.11373,8.3328 21.99196,-2.7295 43.20851,-10.5348 64.19963,-17.3403 8.08094,-3.849 11.46154,-13.4262 17.20537,-19.9043 5.7364,-8.0804 0.71862,-0.2321 -1.79365,3.5998 -17.01469,26.8179 -35.61348,52.7926 -51.72432,80.0828 -3.83552,7.1473 -1.22267,20.0157 8.54787,19.5834 15.61418,-3.0767 28.23004,-14.1557 41.10849,-22.9165 17.96975,-13.7134 35.75179,-29.254 50.21489,-46.0062 -11.82256,25.1264 -25.4823,49.2971 -41.38166,71.9741 -4.61887,7.3366 -9.78474,17.9891 -4.33064,26.0965 5.36114,6.8042 15.21977,2.4419 22.0727,0.5614 28.82435,-11.9538 54.74482,-31.2912 75.76173,-54.3029 21.99594,-28.3366 40.72436,-59.2677 57.11725,-91.1208 13.51023,-30.5653 26.98318,-61.3693 37.34358,-93.1115 0.17506,-5.201 -7.76411,-5.7943 -11.16494,-8.0939 -29.09448,-11.0198 -54.69015,-29.02543 -77.35835,-49.89834 -4.66703,-3.41757 -8.71126,-9.38808 -13.79803,-11.36903 z m -43.72187,83.12557 c 4.86214,-0.015 2.19933,6.9933 0.8434,9.3111 -3.54097,5.8292 -8.15906,12.9448 -15.24867,14.0679 -3.41793,-2.0662 0.54341,-7.3272 1.51812,-9.9858 3.24112,-5.0314 6.91609,-11.3902 12.88715,-13.3932 z m 25.13333,23.7501 c 4.10707,0.2046 1.38704,6.6651 1.92295,9.075 -2.40413,6.0128 -5.48391,14.2032 -12.58353,15.3499 -5.9105,-1.6156 -2.52916,-9.6761 -0.70845,-13.3932 2.43016,-4.4306 5.85062,-10.2586 11.36903,-11.0317 z m 48.74854,25.4032 c 7.11011,-0.7321 8.05814,8.6007 5.46523,13.2583 -2.51464,6.471 -8.40372,14.7633 -16.19329,13.5281 -4.94306,-4.0416 -2.12863,-12.081 -0.1012,-17.1041 2.27248,-4.2943 5.91624,-8.8636 10.82926,-9.6823 z"
             id="path4840"
             inkscape:connector-curvature="0"
             transform="scale(0.8,0.8)" />
          <path
             style="fill:#ffffff;fill-opacity:1"
             d="m 917.39904,954.87971 c -7.79,0.10297 -13.66806,6.41356 -16.86294,12.98161 -6.07529,12.68753 -8.44031,27.2127 -6.42298,41.15008 2.67107,19.3136 7.88936,38.9107 19.27829,55.0048 6.14632,8.4311 14.66658,16.1771 25.47266,17.4244 9.69679,0.94 20.20827,-0.4516 28.02924,-6.6921 7.75494,-6.025 14.66272,-14.3723 16.16651,-24.3416 1.3286,-11.5129 -1.99728,-22.9126 -5.89217,-33.5997 -7.59173,-18.59426 -18.95595,-35.87754 -33.79905,-49.48102 -7.2137,-6.26711 -15.97244,-12.57613 -25.96956,-12.44647 z"
             id="path4844"
             inkscape:connector-curvature="0"
             transform="scale(0.8,0.8)" />
          <path
             style="fill:#ffffff;fill-opacity:1"
             d="m 785.34945,1357.5369 c -6.97583,1.1738 -11.77003,8.1596 -10.81239,15.0968 1.1886,13.0834 10.98634,25.7291 24.17185,28.2877 4.19558,0.3968 9.77622,1.1443 12.81969,-2.429 0.97285,-1.117 -0.79697,-3.7621 1.51812,-2.7158 10.25425,0.9603 20.69274,1.8173 30.91905,1.6194 -0.41249,-2.5585 -5.03356,-2.5499 -6.98335,-4.1327 -18.62048,-7.9449 -31.28672,-24.7132 -48.34371,-35.1023 -1.02307,-0.442 -2.16285,-0.779 -3.28926,-0.6241 z"
             id="path4846"
             inkscape:connector-curvature="0"
             transform="scale(0.8,0.8)" />
          <path
             style="fill:#ffffff;fill-opacity:1"
             d="m 924.36413,633.89843 c -1.84698,2.26644 1.39684,5.70392 1.49126,8.35553 8.21648,27.10066 15.32145,54.81592 16.40638,83.26456 -0.27297,2.12988 1.20943,3.81152 3.16629,2.10606 16.09397,-8.50617 33.59845,-14.42842 51.86069,-15.50573 1.79019,0.31874 3.45125,-1.38002 1.45515,-2.62404 -24.18648,-25.49394 -48.51293,-50.94157 -73.59256,-75.54867 -0.23513,-0.13647 -0.53654,-0.16229 -0.78721,-0.0477 z"
             id="path4848"
             inkscape:connector-curvature="0"
             transform="scale(0.8,0.8)" />
          <path
             style="fill:#ffffff;fill-opacity:1"
             d="m 832.49867,507.63412 c -4.60325,0.76735 -11.34201,-1.15639 -14.47996,3.24428 -1.37868,10.72782 -1.01881,21.69446 -1.57443,32.51431 11.90519,7.96884 24.41752,15.57939 35.89217,24.45611 32.14468,23.94741 60.44586,52.77036 89.08591,80.94532 33.3501,33.39868 65.37954,67.75911 96.35764,103.30081 5.0374,5.14532 9.4061,11.35147 14.8523,15.89223 4.4701,-2.64404 6.5032,-8.36478 9.7232,-12.34039 19.937,-31.12002 45.2051,-58.44187 72.7672,-82.91248 1.5691,-2.37433 6.7547,-4.37743 5.3674,-7.80057 -14.4329,-12.42718 -30.6063,-22.94314 -45.9122,-34.35229 -45.6641,-32.69095 -91.1089,-65.81174 -137.55633,-97.3271 -29.96918,-19.06468 -66.00009,-25.53785 -101.09679,-25.58205 -7.80767,-0.10614 -15.61836,-0.12879 -23.42611,-0.0382 z"
             id="path4850"
             inkscape:connector-curvature="0"
             transform="scale(0.8,0.8)" />
          <path
             style="fill:#ffffff;fill-opacity:1"
             d="m 1197.9328,636.3555 c -11.3336,2.25814 -21.021,9.52866 -30.8921,15.26717 -60.869,39.02586 -107.8495,98.10634 -134.1548,165.34882 -7.4236,17.4972 -11.9743,37.4212 -7.0428,56.28763 2.1802,8.47201 10.4943,15.21552 19.465,13.63644 22.1591,-0.50025 40.434,-15.01382 57.6104,-27.42461 5.6048,-4.65032 12.496,-8.74333 16.4313,-14.69442 -3.7287,-4.21123 -7.3013,-9.62835 -11.6584,-12.91245 -13.3971,12.14822 -27.9832,25.0675 -45.9943,29.72997 -6.2049,2.19758 -12.9251,-2.02281 -13.8358,-8.51623 -1.6066,-10.85906 1.0432,-22.07148 5.0095,-32.15648 18.4242,-40.65322 46.0859,-76.33654 75.996,-109.05224 16.0757,-16.80663 32.3727,-34.08542 52.7015,-45.86189 5.5626,-2.52567 13.2814,-6.32937 18.7262,-1.76526 5.9105,7.29525 2.7408,17.66884 0.9303,25.93034 -0.7936,4.49201 -3.6003,9.11939 -2.8626,13.64504 3.8164,2.50668 7.9231,5.81879 12.5716,6.10687 3.7642,-3.16928 3.545,-9.19772 5.5006,-13.50075 4.2646,-14.3014 7.6635,-30.31756 2.4192,-44.80078 -3.2659,-8.54285 -11.4897,-15.51094 -20.9208,-15.26717 z"
             id="path4852"
             inkscape:connector-curvature="0"
             transform="scale(0.8,0.8)" />
          <path
             style="fill:#ffffff;fill-opacity:1"
             d="m 1161.8403,681.20282 c -16.0903,13.63744 -30.3571,29.41489 -44.4418,45.10974 -16.9694,19.45262 -31.821,40.62016 -46.4218,61.90362 3.3404,5.66419 9.1079,10.31724 13.3636,15.60014 41.4918,46.1787 84.3943,92.73545 138.4783,124.36566 27.8736,15.58894 57.9319,27.04579 88.419,36.41562 13.2219,4.33202 27.1505,6.22532 41.0587,4.93451 8.6751,-0.21816 18.4892,-2.44251 24.0955,-9.51249 3.7021,-6.61708 -3.0849,-12.98787 -7.5382,-17.10401 -18.0112,-14.63354 -38.0476,-26.71276 -55.8206,-41.72233 -9.641,-7.74636 -19.1146,-15.94407 -28.1965,-24.3082 11.7921,8.89924 27.1102,9.96936 41.0257,13.46204 28.6566,5.43961 59.4009,9.60483 87.5286,-0.46109 7.5038,-3.04546 15.2858,-8.14016 18.4638,-15.83969 1.5114,-6.42205 -5.3777,-10.53435 -9.4386,-14.12483 -14.1752,-8.93996 -30.5727,-13.77547 -46.049,-19.96779 -19.6865,-7.21476 -39.544,-13.94961 -59.5649,-20.17742 10.6723,2.52322 21.0652,6.77529 32.2146,6.23826 21.5323,1.02943 43.4192,1.24135 64.6385,-2.98473 8.7929,-2.5393 17.8016,-5.89755 25.0219,-11.62662 3.9195,-4.33003 -0.3205,-10.25471 -4.771,-12.09447 -20.4075,-10.54433 -42.7524,-16.62919 -64.3288,-24.36523 -39.0213,-13.44604 -78.5274,-25.70498 -116.9212,-40.80653 -32.0255,-13.97106 -61.0659,-33.63877 -89.9809,-52.95801 l -0.7631,0.0218 -0.072,0.002 z m 97.3998,70.1813 c 6.9835,0.70748 15.816,2.40526 19.1794,9.32729 0.7242,2.41283 1.2417,6.03361 -2.4094,5.00954 -7.8493,-0.76221 -15.6066,-5.38134 -19.5372,-12.14217 -0.8353,-1.84143 1.4549,-2.23859 2.7672,-2.19466 z m -34.9475,38.09638 c 7.1538,0.98989 13.9096,5.43885 18.2967,11.0687 3.6598,4.06556 0.6208,11.14519 -4.8902,10.87786 -9.2492,-0.43189 -17.3389,-8.37776 -18.75,-17.24714 0.4093,-2.40941 2.904,-4.5627 5.3435,-4.69942 z m -40.7443,41.07824 c 8.8083,0.66461 15.0288,8.47115 20.1813,14.90935 2.902,3.42541 4.8637,10.20999 -0.5964,12.28531 -8.4317,3.47814 -18.3451,-1.70587 -23.4256,-8.54008 -4.2733,-5.04701 -5.2868,-14.42512 1.2166,-18.0105 0.8137,-0.41399 1.7192,-0.58036 2.6241,-0.64408 z"
             id="path4854"
             inkscape:connector-curvature="0"
             transform="scale(0.8,0.8)" />
          <path
             style="fill:#ffffff;fill-opacity:1"
             d="m 1195.2611,663.69328 c -10.9423,0.55713 -20.6922,7.25939 -28.626,14.14599 -2.9912,3.50108 2.5374,5.88015 4.7461,7.67447 7.7133,5.21319 15.2512,11.05561 23.4266,15.34557 3.7985,-2.54638 3.8091,-8.26391 5.4151,-12.21374 1.5201,-7.07957 2.0578,-14.84358 0.6441,-21.99427 -1.0149,-2.15514 -3.2258,-3.37941 -5.6059,-2.95802 z"
             id="path4856"
             inkscape:connector-curvature="0"
             transform="scale(0.8,0.8)" />
          <path
             style="fill:#ffffff;fill-opacity:1"
             d="m 600.11498,747.94595 c -7.41917,-0.19109 -11.37653,10.30279 -5.39122,14.8855 2.89956,2.2925 7.93611,6.00619 10.97328,1.93225 4.89888,-3.27705 6.44909,-11.42246 1.02577,-14.95706 -1.88969,-1.3847 -4.2703,-2.05727 -6.60783,-1.86069 z"
             id="path4904"
             inkscape:connector-curvature="0"
             transform="scale(0.8,0.8)" />
          <path
             style="fill:#ffffff;fill-opacity:1"
             d="m 800.85449,671.15683 c -6.79963,-0.0308 -11.40683,8.72623 -6.65554,14.00286 2.81281,3.94327 9.22404,6.57513 12.7147,1.93226 5.22167,-3.49258 4.88534,-12.1506 -0.9542,-14.83779 -1.55418,-0.8259 -3.33985,-1.22937 -5.10496,-1.09733 z"
             id="path4906"
             inkscape:connector-curvature="0"
             transform="scale(0.8,0.8)" />
          <path
             style="fill:#ffffff;fill-opacity:1"
             d="m 1126.6959,269.60872 c -94.3544,-0.4059 -189.85623,16.54605 -274.61163,59.07247 -74.24206,33.93734 -140.55025,82.51507 -200.16834,137.9126 -39.14245,36.86248 -79.26338,73.30206 -114.11579,114.19589 4.64601,6.35202 16.93117,6.41645 24.17354,10.01799 12.70149,8.72324 22.84012,-1.50919 33.38009,-8.26372 38.7142,-25.5422 81.92087,-41.36829 126.24015,-54.18003 18.23915,-23.16546 31.11471,-51.03138 48.88822,-74.96959 20.56388,-30.5545 42.94824,-60.3401 68.24321,-87.36809 21.59735,43.96712 31.10251,93.1354 45.3412,139.73455 32.77452,7.09048 64.16544,19.02979 91.20419,39.17344 57.33446,38.06968 111.84976,80.80177 169.71016,118.03637 19.7853,-7.36889 35.877,-27.83871 58.1608,-26.9888 20.7596,5.39521 22.8048,32.94044 17.3403,50.53654 -0.1644,9.8733 -11.749,26.21919 1.7543,31.71185 66.7041,32.83307 140.4118,49.75613 208.1512,79.88687 6.886,1.60862 15.8006,11.47184 6.3424,15.85593 -26.9642,14.03429 -59.0146,13.30218 -88.7932,13.42693 11.9712,7.71319 30.7,11.34622 45.1388,18.01503 13.6478,6.95199 33.5053,11.2219 39.4036,26.98881 -1.8096,13.39698 -18.4289,18.02619 -29.5527,21.38863 -17.4274,4.92135 -36.6927,-0.45022 -53.6403,4.52062 2.1132,16.15615 7.2426,34.31064 20.9838,44.59901 5.7657,4.97518 12.346,13.06874 3.9809,19.49941 -12.5098,13.44419 -5.889,34.42989 -9.5287,50.99787 -3.0516,53.063 -39.7346,94.3622 -66.7148,137.4179 -38.8233,59.2608 -83.2743,116.0805 -137.5079,161.764 -27.512,16.8422 -60.2314,28.1306 -93.1788,25.7743 11.7329,-4.1001 11.9769,-20.3989 18.0194,-29.6406 13.9538,-36.0545 9.9604,-76.1466 5.4608,-113.6699 -9.9774,-46.2629 -29.2206,-90.4157 -50.469,-132.3127 -3.9367,6.0322 -0.7026,17.9636 -2.0242,25.8418 2.856,31.5053 -12.6672,67.6014 -44.93638,76.3783 -42.2282,10.9101 -83.49916,-17.4868 -105.45876,-51.4811 -27.62756,-42.4673 -30.92728,-97.2911 -20.03919,-145.80705 6.42374,-22.83277 22.27012,-48.36053 49.25457,-45.88097 11.26202,-0.62079 22.84832,7.26368 33.12876,6.20742 -22.74686,-31.06288 -48.54643,-61.6336 -75.83855,-88.59076 -35.26172,26.24519 -73.18594,50.10749 -114.90485,64.23336 -9.18414,5.85459 -3.26329,20.33357 -6.14432,29.34161 -6.16032,79.15639 1.08152,160.27689 23.61957,236.02589 8.72052,-4.6217 19.05475,-4.7644 27.79848,-9.3786 11.59491,-6.1594 -0.62604,-20.7111 -0.20242,-30.6998 -6.77238,-33.0451 -12.54315,-67.8862 -15.78845,-100.5333 6.74262,42.0603 15.1956,84.0535 23.07543,125.7678 -3.87387,14.027 -22.9206,5.844 -30.16,16.7331 -19.68673,15.9926 -28.40401,41.0084 -28.27077,65.9876 -4.05275,28.7554 3.53627,57.0295 15.51856,82.9906 10.78004,30.7022 37.42426,52.9159 64.84061,68.6865 40.78826,15.6492 86.3049,12.4083 129.4097,15.7379 71.46161,1.6862 142.59211,10.8072 214.15761,8.4136 47.3318,-1.0467 95.8533,3.0792 141.4813,-12.4364 106.7661,-28.6772 200.1554,-94.3833 276.9804,-172.366 72.3833,-75.987 131.7803,-170.048 147.6288,-275.35328 15.1246,-100.99469 -3.3517,-204.31709 -38.4591,-299.30589 -41.4056,-110.8809 -115.2149,-211.35188 -216.0339,-274.94844 -65.8538,-45.31733 -136.0193,-90.26679 -217.0135,-100.7512 -48.0317,-7.04807 -96.7843,-8.03271 -145.2553,-7.94627 z M 786.70442,1010.2491 c 0.0221,4.5507 -0.30842,-1.0745 0,0 z"
             id="path4914"
             inkscape:connector-curvature="0"
             transform="scale(0.8,0.8)" />
        </g>
      </g>
    </g>
  </g>
</svg>
